<svg width="18" height="17" viewBox="0 0 18 17" fill="none" xmlns="http://www.w3.org/2000/svg">
<path d="M1.95654 1.2C1.95654 0.537258 2.4938 0 3.15654 0H8.71261C9.03545 0 9.34466 0.130076 9.57042 0.360847L11.4079 2.23915C11.6336 2.46992 11.9429 2.6 12.2657 2.6H14.8435C15.5062 2.6 16.0435 3.13726 16.0435 3.8V15.8C16.0435 16.4627 15.5062 17 14.8435 17H3.15654C2.4938 17 1.95654 16.4627 1.95654 15.8V1.2Z" fill="#1A878B"/>
<path d="M0 1.2C0 0.537258 0.537258 0 1.2 0H6.75607C7.0789 0 7.38812 0.130076 7.61387 0.360847L9.45135 2.23915C9.6771 2.46992 9.98631 2.6 10.3091 2.6H16.8C17.4627 2.6 18 3.13726 18 3.8V15.8C18 16.4627 17.4627 17 16.8 17H1.2C0.537259 17 0 16.4627 0 15.8V1.2Z" fill="#25C9D0"/>
</svg>
